# Exported from ProBuilder
# http://www.procore3d.com/probuilder
# 5/10/2018 3:44:22 PM

mtllib ./ShoppingMallTable.mtl
o ShoppingMallTable

g ShoppingMallTable
v -1.04824 0 0
v -1.04824 0.713347 0
v -0.9969358 0 0.3239242
v -0.9969358 0.713347 0.3239242
v -0.9969358 0 0.3239242
v -0.9969358 0.713347 0.3239242
v -0.8480442 0 0.6161403
v -0.8480442 0.713347 0.6161403
v -0.8480442 0 0.6161403
v -0.8480442 0.713347 0.6161403
v -0.6161402 0 0.8480444
v -0.6161402 0.713347 0.8480444
v -0.6161402 0 0.8480444
v -0.6161402 0.713347 0.8480444
v -0.323924 0 0.996936
v -0.323924 0.713347 0.996936
v -0.323924 0 0.996936
v -0.323924 0.713347 0.996936
v 4.582004E-08 0 1.048241
v 4.582004E-08 0.713347 1.048241
v 4.582004E-08 0 1.048241
v 4.582004E-08 0.713347 1.048241
v 0.323924 0 0.996936
v 0.323924 0.713347 0.996936
v 0.323924 0 0.996936
v 0.323924 0.713347 0.996936
v 0.6161401 0 0.8480444
v 0.6161401 0.713347 0.8480444
v 0.6161401 0 0.8480444
v 0.6161401 0.713347 0.8480444
v 0.8480443 0 0.6161402
v 0.8480443 0.713347 0.6161402
v 0.8480443 0 0.6161402
v 0.8480443 0.713347 0.6161402
v 0.9969357 0 0.3239242
v 0.9969357 0.713347 0.3239242
v 0.9969357 0 0.3239242
v 0.9969357 0.713347 0.3239242
v 1.04824 0 -9.16401E-08
v 1.04824 0.713347 -9.16401E-08
v 1.04824 0 -9.16401E-08
v 1.04824 0.713347 -9.16401E-08
v 0.9969358 0 -0.3239241
v 0.9969358 0.713347 -0.3239241
v 0.9969358 0 -0.3239241
v 0.9969358 0.713347 -0.3239241
v 0.8480443 0 -0.6161402
v 0.8480443 0.713347 -0.6161402
v 0.8480443 0 -0.6161402
v 0.8480443 0.713347 -0.6161402
v 0.6161404 0 -0.8480442
v 0.6161404 0.713347 -0.8480442
v 0.6161404 0 -0.8480442
v 0.6161404 0.713347 -0.8480442
v 0.3239242 0 -0.996936
v 0.3239242 0.713347 -0.996936
v 0.3239242 0 -0.996936
v 0.3239242 0.713347 -0.996936
v -1.250014E-08 0 -1.048241
v -1.250014E-08 0.713347 -1.048241
v -1.250014E-08 0 -1.048241
v -1.250014E-08 0.713347 -1.048241
v -0.3239242 0 -0.996936
v -0.3239242 0.713347 -0.996936
v -0.3239242 0 -0.996936
v -0.3239242 0.713347 -0.996936
v -0.61614 0 -0.8480446
v -0.61614 0.713347 -0.8480446
v -0.61614 0 -0.8480446
v -0.61614 0.713347 -0.8480446
v -0.8480442 0 -0.6161404
v -0.8480442 0.713347 -0.6161404
v -0.8480442 0 -0.6161404
v -0.8480442 0.713347 -0.6161404
v -0.9969358 0 -0.3239241
v -0.9969358 0.713347 -0.3239241
v -0.9969358 0 -0.3239241
v -0.9969358 0.713347 -0.3239241
v -1.04824 0 0
v -1.04824 0.713347 0
v -1.04824 0 0
v 0 0 0
v -0.9969358 0 0.3239242
v -1.04824 0.713347 0
v 0 0.713347 0
v -0.9969358 0.713347 0.3239242
v -0.9969358 0 0.3239242
v 0 0 0
v -0.8480442 0 0.6161403
v -0.9969358 0.713347 0.3239242
v 0 0.713347 0
v -0.8480442 0.713347 0.6161403
v -0.8480442 0 0.6161403
v 0 0 0
v -0.6161402 0 0.8480444
v -0.8480442 0.713347 0.6161403
v 0 0.713347 0
v -0.6161402 0.713347 0.8480444
v -0.6161402 0 0.8480444
v 0 0 0
v -0.323924 0 0.996936
v -0.6161402 0.713347 0.8480444
v 0 0.713347 0
v -0.323924 0.713347 0.996936
v -0.323924 0 0.996936
v 0 0 0
v 4.582004E-08 0 1.048241
v -0.323924 0.713347 0.996936
v 0 0.713347 0
v 4.582004E-08 0.713347 1.048241
v 4.582004E-08 0 1.048241
v 0 0 0
v 0.323924 0 0.996936
v 4.582004E-08 0.713347 1.048241
v 0 0.713347 0
v 0.323924 0.713347 0.996936
v 0.323924 0 0.996936
v 0 0 0
v 0.6161401 0 0.8480444
v 0.323924 0.713347 0.996936
v 0 0.713347 0
v 0.6161401 0.713347 0.8480444
v 0.6161401 0 0.8480444
v 0 0 0
v 0.8480443 0 0.6161402
v 0.6161401 0.713347 0.8480444
v 0 0.713347 0
v 0.8480443 0.713347 0.6161402
v 0.8480443 0 0.6161402
v 0 0 0
v 0.9969357 0 0.3239242
v 0.8480443 0.713347 0.6161402
v 0 0.713347 0
v 0.9969357 0.713347 0.3239242
v 0.9969357 0 0.3239242
v 0 0 0
v 1.04824 0 -9.16401E-08
v 0.9969357 0.713347 0.3239242
v 0 0.713347 0
v 1.04824 0.713347 -9.16401E-08
v 1.04824 0 -9.16401E-08
v 0 0 0
v 0.9969358 0 -0.3239241
v 1.04824 0.713347 -9.16401E-08
v 0 0.713347 0
v 0.9969358 0.713347 -0.3239241
v 0.9969358 0 -0.3239241
v 0 0 0
v 0.8480443 0 -0.6161402
v 0.9969358 0.713347 -0.3239241
v 0 0.713347 0
v 0.8480443 0.713347 -0.6161402
v 0.8480443 0 -0.6161402
v 0 0 0
v 0.6161404 0 -0.8480442
v 0.8480443 0.713347 -0.6161402
v 0 0.713347 0
v 0.6161404 0.713347 -0.8480442
v 0.6161404 0 -0.8480442
v 0 0 0
v 0.3239242 0 -0.996936
v 0.6161404 0.713347 -0.8480442
v 0 0.713347 0
v 0.3239242 0.713347 -0.996936
v 0.3239242 0 -0.996936
v 0 0 0
v -1.250014E-08 0 -1.048241
v 0.3239242 0.713347 -0.996936
v 0 0.713347 0
v -1.250014E-08 0.713347 -1.048241
v -1.250014E-08 0 -1.048241
v 0 0 0
v -0.3239242 0 -0.996936
v -1.250014E-08 0.713347 -1.048241
v 0 0.713347 0
v -0.3239242 0.713347 -0.996936
v -0.3239242 0 -0.996936
v 0 0 0
v -0.61614 0 -0.8480446
v -0.3239242 0.713347 -0.996936
v 0 0.713347 0
v -0.61614 0.713347 -0.8480446
v -0.61614 0 -0.8480446
v 0 0 0
v -0.8480442 0 -0.6161404
v -0.61614 0.713347 -0.8480446
v 0 0.713347 0
v -0.8480442 0.713347 -0.6161404
v -0.8480442 0 -0.6161404
v 0 0 0
v -0.9969358 0 -0.3239241
v -0.8480442 0.713347 -0.6161404
v 0 0.713347 0
v -0.9969358 0.713347 -0.3239241
v -0.9969358 0 -0.3239241
v 0 0 0
v -1.04824 0 0
v -0.9969358 0.713347 -0.3239241
v 0 0.713347 0
v -1.04824 0.713347 0

vn -2.07067 0 -3.124E-08
vn -2.07067 0 -3.124E-08
vn -1.969324 0 0.6398722
vn -1.969324 0 0.6398722
vn -1.969324 0 0.6398722
vn -1.969324 0 0.6398722
vn -1.675207 0 1.217109
vn -1.675207 0 1.217109
vn -1.675207 0 1.217109
vn -1.675207 0 1.217109
vn -1.217109 0 1.675207
vn -1.217109 0 1.675207
vn -1.217109 0 1.675207
vn -1.217109 0 1.675207
vn -0.639872 0 1.969324
vn -0.639872 0 1.969324
vn -0.639872 0 1.969324
vn -0.639872 0 1.969324
vn 3.124E-08 0 2.07067
vn 3.124E-08 0 2.07067
vn 3.124E-08 0 2.07067
vn 3.124E-08 0 2.07067
vn 0.6398721 0 1.969324
vn 0.6398721 0 1.969324
vn 0.6398721 0 1.969324
vn 0.6398721 0 1.969324
vn 1.217109 0 1.675207
vn 1.217109 0 1.675207
vn 1.217109 0 1.675207
vn 1.217109 0 1.675207
vn 1.675207 0 1.217109
vn 1.675207 0 1.217109
vn 1.675207 0 1.217109
vn 1.675207 0 1.217109
vn 1.969324 0 0.6398722
vn 1.969324 0 0.6398722
vn 1.969324 0 0.6398722
vn 1.969324 0 0.6398722
vn 2.070669 0 7.810001E-08
vn 2.070669 0 7.810001E-08
vn 2.070669 0 7.810001E-08
vn 2.070669 0 7.810001E-08
vn 1.969324 0 -0.6398723
vn 1.969324 0 -0.6398723
vn 1.969324 0 -0.6398723
vn 1.969324 0 -0.6398723
vn 1.675207 0 -1.217109
vn 1.675207 0 -1.217109
vn 1.675207 0 -1.217109
vn 1.675207 0 -1.217109
vn 1.217109 0 -1.675207
vn 1.217109 0 -1.675207
vn 1.217109 0 -1.675207
vn 1.217109 0 -1.675207
vn 0.6398724 0 -1.969324
vn 0.6398724 0 -1.969324
vn 0.6398724 0 -1.969324
vn 0.6398724 0 -1.969324
vn 0 0 -2.07067
vn 0 0 -2.07067
vn 0 0 -2.07067
vn 0 0 -2.07067
vn -0.6398721 0 -1.969324
vn -0.6398721 0 -1.969324
vn -0.6398721 0 -1.969324
vn -0.6398721 0 -1.969324
vn -1.217109 0 -1.675207
vn -1.217109 0 -1.675207
vn -1.217109 0 -1.675207
vn -1.217109 0 -1.675207
vn -1.675207 0 -1.217109
vn -1.675207 0 -1.217109
vn -1.675207 0 -1.217109
vn -1.675207 0 -1.217109
vn -1.969324 0 -0.6398723
vn -1.969324 0 -0.6398723
vn -1.969324 0 -0.6398723
vn -1.969324 0 -0.6398723
vn -2.07067 0 -3.124E-08
vn -2.07067 0 -3.124E-08
vn 0 -0.713347 0
vn 0 -0.713347 0
vn 0 -0.713347 0
vn 0 0.713347 0
vn 0 0.713347 0
vn 0 0.713347 0
vn 0 -0.713347 0
vn 0 -0.713347 0
vn 0 -0.713347 0
vn 0 0.713347 0
vn 0 0.713347 0
vn 0 0.713347 0
vn 0 -0.713347 0
vn 0 -0.713347 0
vn 0 -0.713347 0
vn 0 0.713347 0
vn 0 0.713347 0
vn 0 0.713347 0
vn 0 -0.713347 0
vn 0 -0.713347 0
vn 0 -0.713347 0
vn 0 0.713347 0
vn 0 0.713347 0
vn 0 0.713347 0
vn 0 -0.713347 0
vn 0 -0.713347 0
vn 0 -0.713347 0
vn 0 0.713347 0
vn 0 0.713347 0
vn 0 0.713347 0
vn 0 -0.7133469 0
vn 0 -0.7133469 0
vn 0 -0.7133469 0
vn 0 0.7133469 0
vn 0 0.7133469 0
vn 0 0.7133469 0
vn 0 -0.713347 0
vn 0 -0.713347 0
vn 0 -0.713347 0
vn 0 0.713347 0
vn 0 0.713347 0
vn 0 0.713347 0
vn 0 -0.713347 0
vn 0 -0.713347 0
vn 0 -0.713347 0
vn 0 0.713347 0
vn 0 0.713347 0
vn 0 0.713347 0
vn 0 -0.713347 0
vn 0 -0.713347 0
vn 0 -0.713347 0
vn 0 0.713347 0
vn 0 0.713347 0
vn 0 0.713347 0
vn 0 -0.713347 0
vn 0 -0.713347 0
vn 0 -0.713347 0
vn 0 0.713347 0
vn 0 0.713347 0
vn 0 0.713347 0
vn 0 -0.713347 0
vn 0 -0.713347 0
vn 0 -0.713347 0
vn 0 0.713347 0
vn 0 0.713347 0
vn 0 0.713347 0
vn 0 -0.713347 0
vn 0 -0.713347 0
vn 0 -0.713347 0
vn 0 0.713347 0
vn 0 0.713347 0
vn 0 0.713347 0
vn 0 -0.713347 0
vn 0 -0.713347 0
vn 0 -0.713347 0
vn 0 0.713347 0
vn 0 0.713347 0
vn 0 0.713347 0
vn 0 -0.713347 0
vn 0 -0.713347 0
vn 0 -0.713347 0
vn 0 0.713347 0
vn 0 0.713347 0
vn 0 0.713347 0
vn 0 -0.713347 0
vn 0 -0.713347 0
vn 0 -0.713347 0
vn 0 0.713347 0
vn 0 0.713347 0
vn 0 0.713347 0
vn 0 -0.713347 0
vn 0 -0.713347 0
vn 0 -0.713347 0
vn 0 0.713347 0
vn 0 0.713347 0
vn 0 0.713347 0
vn 0 -0.713347 0
vn 0 -0.713347 0
vn 0 -0.713347 0
vn 0 0.713347 0
vn 0 0.713347 0
vn 0 0.713347 0
vn 0 -0.713347 0
vn 0 -0.713347 0
vn 0 -0.713347 0
vn 0 0.713347 0
vn 0 0.713347 0
vn 0 0.713347 0
vn 0 -0.713347 0
vn 0 -0.713347 0
vn 0 -0.713347 0
vn 0 0.713347 0
vn 0 0.713347 0
vn 0 0.713347 0
vn 0 -0.713347 0
vn 0 -0.713347 0
vn 0 -0.713347 0
vn 0 0.713347 0
vn 0 0.713347 0
vn 0 0.713347 0

vt -0.07821719 0
vt -0.07821719 1
vt 0.07821728 0
vt 0.07821728 1
vt -0.07821727 0
vt -0.07821727 1
vt 0.07821719 0
vt 0.07821719 1
vt -0.07821718 0
vt -0.07821718 1
vt 0.07821728 0
vt 0.07821728 1
vt -0.07821729 0
vt -0.07821729 1
vt 0.07821722 0
vt 0.07821722 1
vt -0.07821726 0
vt -0.07821726 1
vt 0.07821722 0
vt 0.07821722 1
vt -0.07821719 0
vt -0.07821719 1
vt 0.07821722 0
vt 0.07821722 1
vt -0.0782173 0
vt -0.0782173 1
vt 0.07821717 0
vt 0.07821717 1
vt -0.0782172 0
vt -0.0782172 1
vt 0.07821734 0
vt 0.07821734 1
vt -0.07821726 0
vt -0.07821726 1
vt 0.07821714 0
vt 0.07821714 1
vt -0.07821724 0
vt -0.07821724 1
vt 0.07821731 0
vt 0.07821731 1
vt -0.07821718 0
vt -0.07821718 1
vt 0.07821723 0
vt 0.07821723 1
vt -0.07821727 0
vt -0.07821727 1
vt 0.07821714 0
vt 0.07821714 1
vt -0.07821722 0
vt -0.07821722 1
vt 0.0782172 0
vt 0.0782172 1
vt -0.07821721 0
vt -0.07821721 1
vt 0.07821732 0
vt 0.07821732 1
vt -0.07821725 0
vt -0.07821725 1
vt 0.07821728 0
vt 0.07821728 1
vt -0.07821725 0
vt -0.07821725 1
vt 0.07821728 0
vt 0.07821728 1
vt -0.07821716 0
vt -0.07821716 1
vt 0.07821713 0
vt 0.07821713 1
vt -0.07821728 0
vt -0.07821728 1
vt 0.07821726 0
vt 0.07821726 1
vt -0.07821724 0
vt -0.07821724 1
vt 0.0782173 0
vt 0.0782173 1
vt -0.07821723 0
vt -0.07821723 1
vt 0.07821721 0
vt 0.07821721 1
vt -0.5 0
vt 0 0
vt -0.4755283 0.1545085
vt 0.5 0
vt 0 0
vt 0.4755283 0.1545085
vt -0.4755283 0.1545085
vt 0 0
vt -0.4045085 0.2938926
vt 0.4755283 0.1545085
vt 0 0
vt 0.4045085 0.2938926
vt -0.4045085 0.2938926
vt 0 0
vt -0.2938927 0.4045085
vt 0.4045085 0.2938926
vt 0 0
vt 0.2938927 0.4045085
vt -0.2938927 0.4045085
vt 0 0
vt -0.1545085 0.4755283
vt 0.2938927 0.4045085
vt 0 0
vt 0.1545085 0.4755283
vt -0.1545085 0.4755283
vt 0 0
vt 2.185569E-08 0.5
vt 0.1545085 0.4755283
vt 0 0
vt -2.185569E-08 0.5
vt 2.185569E-08 0.5
vt 0 0
vt 0.1545085 0.4755283
vt -2.185569E-08 0.5
vt 0 0
vt -0.1545085 0.4755283
vt 0.1545085 0.4755283
vt 0 0
vt 0.2938926 0.4045085
vt -0.1545085 0.4755283
vt 0 0
vt -0.2938926 0.4045085
vt 0.2938926 0.4045085
vt 0 0
vt 0.4045085 0.2938926
vt -0.2938926 0.4045085
vt 0 0
vt -0.4045085 0.2938926
vt 0.4045085 0.2938926
vt 0 0
vt 0.4755282 0.1545085
vt -0.4045085 0.2938926
vt 0 0
vt -0.4755282 0.1545085
vt 0.4755282 0.1545085
vt 0 0
vt 0.5 -4.371139E-08
vt -0.4755282 0.1545085
vt 0 0
vt -0.5 -4.371139E-08
vt 0.5 -4.371139E-08
vt 0 0
vt 0.4755283 -0.1545085
vt -0.5 -4.371139E-08
vt 0 0
vt -0.4755283 -0.1545085
vt 0.4755283 -0.1545085
vt 0 0
vt 0.4045085 -0.2938926
vt -0.4755283 -0.1545085
vt 0 0
vt -0.4045085 -0.2938926
vt 0.4045085 -0.2938926
vt 0 0
vt 0.2938927 -0.4045084
vt -0.4045085 -0.2938926
vt 0 0
vt -0.2938927 -0.4045084
vt 0.2938927 -0.4045084
vt 0 0
vt 0.1545085 -0.4755282
vt -0.2938927 -0.4045084
vt 0 0
vt -0.1545085 -0.4755282
vt 0.1545085 -0.4755282
vt 0 0
vt -5.96244E-09 -0.5
vt -0.1545085 -0.4755282
vt 0 0
vt 5.96244E-09 -0.5
vt -5.96244E-09 -0.5
vt 0 0
vt -0.1545086 -0.4755282
vt 5.96244E-09 -0.5
vt 0 0
vt 0.1545086 -0.4755282
vt -0.1545086 -0.4755282
vt 0 0
vt -0.2938925 -0.4045086
vt 0.1545086 -0.4755282
vt 0 0
vt 0.2938925 -0.4045086
vt -0.2938925 -0.4045086
vt 0 0
vt -0.4045085 -0.2938927
vt 0.2938925 -0.4045086
vt 0 0
vt 0.4045085 -0.2938927
vt -0.4045085 -0.2938927
vt 0 0
vt -0.4755283 -0.1545085
vt 0.4045085 -0.2938927
vt 0 0
vt 0.4755283 -0.1545085
vt -0.4755283 -0.1545085
vt 0 0
vt -0.5 0
vt 0.4755283 -0.1545085
vt 0 0
vt 0.5 0

g ShoppingMallTable_0
usemtl Default_Prototype
f 3/3/3 4/4/4 2/2/2 1/1/1
f 7/7/7 8/8/8 6/6/6 5/5/5
f 11/11/11 12/12/12 10/10/10 9/9/9
f 15/15/15 16/16/16 14/14/14 13/13/13
f 19/19/19 20/20/20 18/18/18 17/17/17
f 23/23/23 24/24/24 22/22/22 21/21/21
f 27/27/27 28/28/28 26/26/26 25/25/25
f 31/31/31 32/32/32 30/30/30 29/29/29
f 35/35/35 36/36/36 34/34/34 33/33/33
f 39/39/39 40/40/40 38/38/38 37/37/37
f 43/43/43 44/44/44 42/42/42 41/41/41
f 47/47/47 48/48/48 46/46/46 45/45/45
f 51/51/51 52/52/52 50/50/50 49/49/49
f 55/55/55 56/56/56 54/54/54 53/53/53
f 59/59/59 60/60/60 58/58/58 57/57/57
f 63/63/63 64/64/64 62/62/62 61/61/61
f 67/67/67 68/68/68 66/66/66 65/65/65
f 71/71/71 72/72/72 70/70/70 69/69/69
f 75/75/75 76/76/76 74/74/74 73/73/73
f 79/79/79 80/80/80 78/78/78 77/77/77

g ShoppingMallTable_1
usemtl Default_Prototype
f 81/81/81 82/82/82 83/83/83
f 87/87/87 88/88/88 89/89/89
f 93/93/93 94/94/94 95/95/95
f 99/99/99 100/100/100 101/101/101
f 105/105/105 106/106/106 107/107/107
f 111/111/111 112/112/112 113/113/113
f 117/117/117 118/118/118 119/119/119
f 123/123/123 124/124/124 125/125/125
f 129/129/129 130/130/130 131/131/131
f 135/135/135 136/136/136 137/137/137
f 141/141/141 142/142/142 143/143/143
f 147/147/147 148/148/148 149/149/149
f 153/153/153 154/154/154 155/155/155
f 159/159/159 160/160/160 161/161/161
f 165/165/165 166/166/166 167/167/167
f 171/171/171 172/172/172 173/173/173
f 177/177/177 178/178/178 179/179/179
f 183/183/183 184/184/184 185/185/185
f 189/189/189 190/190/190 191/191/191
f 195/195/195 196/196/196 197/197/197
f 86/86/86 85/85/85 84/84/84
f 92/92/92 91/91/91 90/90/90
f 98/98/98 97/97/97 96/96/96
f 104/104/104 103/103/103 102/102/102
f 110/110/110 109/109/109 108/108/108
f 116/116/116 115/115/115 114/114/114
f 122/122/122 121/121/121 120/120/120
f 128/128/128 127/127/127 126/126/126
f 134/134/134 133/133/133 132/132/132
f 140/140/140 139/139/139 138/138/138
f 146/146/146 145/145/145 144/144/144
f 152/152/152 151/151/151 150/150/150
f 158/158/158 157/157/157 156/156/156
f 164/164/164 163/163/163 162/162/162
f 170/170/170 169/169/169 168/168/168
f 176/176/176 175/175/175 174/174/174
f 182/182/182 181/181/181 180/180/180
f 188/188/188 187/187/187 186/186/186
f 194/194/194 193/193/193 192/192/192
f 200/200/200 199/199/199 198/198/198

